<?xml version="1.0" encoding="UTF-8" standalone="no"?>
<!-- Created with Inkscape (http://www.inkscape.org/) -->

<svg
   xmlns:dc="http://purl.org/dc/elements/1.1/"
   xmlns:cc="http://creativecommons.org/ns#"
   xmlns:rdf="http://www.w3.org/1999/02/22-rdf-syntax-ns#"
   xmlns:svg="http://www.w3.org/2000/svg"
   xmlns="http://www.w3.org/2000/svg"
   xmlns:sodipodi="http://sodipodi.sourceforge.net/DTD/sodipodi-0.dtd"
   xmlns:inkscape="http://www.inkscape.org/namespaces/inkscape"
   width="512"
   height="512"
   id="svg2"
   version="1.1"
   inkscape:version="0.48.4 r9939"
   sodipodi:docname="logo_flamenco.svg"
   inkscape:export-filename="/shared/software/attract3/logo/attract_logo_bw_1080.png"
   inkscape:export-xdpi="90"
   inkscape:export-ydpi="90">
  <defs
     id="defs4" />
  <sodipodi:namedview
     id="base"
     pagecolor="#ffffff"
     bordercolor="#666666"
     borderopacity="1.0"
     inkscape:pageopacity="0.0"
     inkscape:pageshadow="2"
     inkscape:zoom="0.49497475"
     inkscape:cx="153.60622"
     inkscape:cy="196.16365"
     inkscape:document-units="px"
     inkscape:current-layer="text2984"
     showgrid="false"
     fit-margin-top="10"
     fit-margin-left="10"
     fit-margin-right="10"
     fit-margin-bottom="10"
     inkscape:showpageshadow="false"
     inkscape:window-width="1281"
     inkscape:window-height="708"
     inkscape:window-x="327"
     inkscape:window-y="612"
     inkscape:window-maximized="0" />
  <metadata
     id="metadata7">
    <rdf:RDF>
      <cc:Work
         rdf:about="">
        <dc:format>image/svg+xml</dc:format>
        <dc:type
           rdf:resource="http://purl.org/dc/dcmitype/StillImage" />
        <dc:title></dc:title>
      </cc:Work>
    </rdf:RDF>
  </metadata>
  <g
     inkscape:label="Layer 1"
     inkscape:groupmode="layer"
     id="layer1"
     transform="translate(-81.656231,-11.7557)">
    <g
       id="g2995"
       transform="matrix(0.66925035,0,0,0.66925035,371.3471,-72.927844)"
       style="fill:black;fill-opacity:1;stroke:none;fill-rule:nonzero">
      <g
         style="font-size:708.35473633px;font-style:normal;font-variant:normal;font-weight:normal;font-stretch:normal;text-align:start;line-height:125%;letter-spacing:0px;word-spacing:0px;writing-mode:lr-tb;text-anchor:start;fill:black;font-family:Open Sans;-inkscape-font-specification:Open Sans"
         id="text2984">
        <path
           d="m -48.041991,633.10581 c -5.667221,-0.47221 -11.570172,-2.36115 -17.708869,-5.66684 -6.139439,-3.77785 -11.334035,-7.79186 -15.583804,-12.04203 -5.194952,-6.61126 -8.97284,-14.40315 -11.333676,-23.37571 -2.361524,-8.97241 -2.597642,-17.70878 -0.708354,-26.20912 2.360836,-9.91686 7.319314,-18.65323 14.875449,-26.20913 8.027654,-8.02788 17.000138,-12.98636 26.91748,-14.87545 3.777503,-0.94433 8.972099,-1.18045 15.583804,-0.70835 7.08314,1.4e-4 12.513854,0.70849 16.292159,2.12506 8.499831,3.30579 15.5833716,8.26427 21.2506423,14.87545 6.1386298,6.13919 10.3887537,13.69497 12.7503857,22.66735 1.416256,4.25023 1.888492,9.91706 1.416709,17.00052 -4.53e-4,7.08362 -0.708807,12.51434 -2.125064,16.29216 -2.361631,6.61137 -6.1395189,12.75044 -11.3336759,18.41722 -4.7227994,5.19464 -10.3896316,9.44477 -17.0005141,12.75038 -10.86185,5.19464 -21.959397,6.84746 -33.292672,4.95849 M -386.63556,599.81313 c -0.47228,-0.9444 -0.23616,-11.09748 0.70836,-30.45925 -0.94452,23.6119 0.23607,-10.86133 3.54177,-103.41979 -5e-5,-6.13887 0.23607,-17.47253 0.70836,-34.00103 l 1.41671,-41.08457 c 0.94441,-29.7506 2.36112,-51.70957 4.25013,-65.87699 1.88888,-14.63898 4.7223,-25.26429 8.50025,-31.87597 1.41664,-2.83304 5.66677,-9.44434 12.75039,-19.83393 7.55569,-10.3888 14.167,-19.12517 19.83393,-26.20912 7.55567,-10.38878 15.11145,-19.59738 22.66735,-27.62584 8.02789,-8.02757 19.83379,-18.41676 35.41774,-31.16761 12.75021,-10.86095 21.48658,-17.70837 26.20912,-20.54229 4.72218,-3.30515 9.91677,-5.43021 15.58381,-6.37519 14.16688,-2.83291 40.37598,3.07004 78.62737,17.70887 38.72308,14.6398 92.321865,38.95996 160.7965293,72.96054 73.1961417,37.30706 131.9895307,69.41911 176.3803307,96.33624 13.69423,8.50057 23.13895,15.11187 28.33419,19.83394 5.66618,4.72265 9.91631,9.91725 12.75038,15.5838 0.94382,2.36146 1.41605,4.25041 1.41671,5.66684 0.47158,0.94475 0.47158,2.36145 0,4.25013 l -2.12506,5.66683 c -1.41737,2.36145 -9.6815,11.57005 -24.79242,27.62584 -15.11218,15.58403 -27.62644,27.86216 -37.5428,36.83444 -12.27873,11.33387 -20.77898,18.65353 -25.50077,21.959 -4.25069,3.30583 -8.73694,4.95866 -13.45874,4.95848 -6.61186,1.8e-4 -13.93152,-1.65265 -21.958996,-4.95848 -7.556311,-3.30547 -20.778919,-10.62513 -39.667865,-21.959 -39.66832,-24.08383 -89.253102,-51.00128 -148.754494,-80.75244 -41.557115,-21.25033 -80.516585,-39.90366 -116.878535,-55.96002 -35.41793,-16.05569 -53.3629,-22.90311 -53.83496,-20.54229 l -3.54177,148.7545 c -0.47241,12.27834 -1.41688,20.77859 -2.83342,25.50077 -0.4724,2.36136 -2.36135,6.61149 -5.66684,12.75038 -9.91712,20.77856 -25.97314,42.2653 -48.16812,64.46028 -13.22272,12.75048 -25.73698,23.3758 -37.5428,31.87597 -11.80598,8.50032 -20.07011,12.75045 -24.79242,12.75038 -1.41676,7e-5 -2.36123,-0.94441 -2.83342,-2.83342"
           style="fill:white;fill-opacity:1"
           id="path2986" />
      </g>
    </g>
  </g>
</svg>
